# xmcd
#
# Track frame offsets:
# 150
# 14075
# 34780
# 56375
# 76690
# 96532
# 111665
# 131017
# 150145
# 167177
# 186000
# 203897
# 221335
# 237545
#
# Disc length: 3317 seconds
#
#
# Revision: 0
# Processed by: cddbd v1.5.2PL0 Copyright (c) Steve Scherf et al.
# Submitted via: FreeRIP 2.951 
#
DISCID=be0cf30e
DTITLE=AS 100 MAIS SERTANEJAS - CD7
DYEAR=1900
DGENRE=SERTANEJO
TTITLE0=LIGUEI PRA DIZER QUE TE AMO
TTITLE1=POR UM MINUTO
TTITLE2=EVIDENCIAS
TTITLE3=ESTOU APAIXONADO
TTITLE4=DEU MEDO
TTITLE5=TA NO MEU CORACAO
TTITLE6=MENTIRA QUE VIROU PAIXAO
TTITLE7=LACO ABERTO
TTITLE8=MEU DISFARCE
TTITLE9=DOIDINHO POR VOCE
TTITLE10=UM SONHADOR
TTITLE11=VAI DAR SAMBA
TTITLE12=QUER CASAR COMIGO
TTITLE13=ANARRIE
EXTD=
EXTT0=
EXTT1=
EXTT2=
EXTT3=
EXTT4=
EXTT5=
EXTT6=
EXTT7=
EXTT8=
EXTT9=
EXTT10=
EXTT11=
EXTT12=
EXTT13=
PLAYORDER=
